<?xml version="1.0" encoding="utf-8"?>
<!-- Generator: Adobe Illustrator 21.1.0, SVG Export Plug-In . SVG Version: 6.00 Build 0)  -->
<svg version="1.1" id="Слой_1" xmlns="http://www.w3.org/2000/svg" xmlns:xlink="http://www.w3.org/1999/xlink" x="0px" y="0px"
	 viewBox="0 0 538 139" style="enable-background:new 0 0 538 139;" xml:space="preserve">
<style type="text/css">
	.st0{fill:none;}
	.st1{fill:#FFC107;}
	.st2{fill:#0F9D58;}
	.st3{opacity:0.2;fill:#BF360C;enable-background:new    ;}
	.st4{opacity:0.2;fill:#263238;enable-background:new    ;}
	.st5{opacity:0.2;fill:#FFFFFF;enable-background:new    ;}
	.st6{fill:url(#XMLID_2_);}
	.st7{fill:url(#XMLID_3_);}
	.st8{fill:#4285F4;}
	.st9{fill:#DB4437;}
	.st10{opacity:0.2;fill:#1A237E;enable-background:new    ;}
	.st11{opacity:0.2;fill:#3E2723;enable-background:new    ;}
	.st12{fill:url(#XMLID_4_);}
	.st13{fill:none;stroke:#000000;}
	.st14{font-family:'OpenSans';}
	.st15{font-size:52.7671px;}
</style>
<title>GDG_2018_white</title>
<desc>Created with Sketch.</desc>
<g id="Page-1">
	<g id="GDG_2018_white">
		<g id="XMLID_61_">
			<g id="XMLID_62_">
				<path id="XMLID_106_" class="st0" d="M78.4,58L44.8,0H0l37,64L0,128h44.8l33.5-58C80.5,66.3,80.5,61.7,78.4,58z"/>
				<polygon id="XMLID_105_" class="st1" points="59.2,102.3 48.5,83.9 23,128 44.8,128 59.4,102.8 				"/>
				<path id="XMLID_104_" class="st0" d="M78.4,58L44.8,0H0l37,64L0,128h44.8l33.5-58C80.5,66.3,80.5,61.7,78.4,58z"/>
				<polygon id="XMLID_103_" class="st2" points="37,64 48.5,83.9 23,128 0,128 				"/>
				<path id="XMLID_102_" class="st0" d="M78.4,58L44.8,0H0l37,64L0,128h44.8l33.5-58C80.5,66.3,80.5,61.7,78.4,58z"/>
				<polygon id="XMLID_101_" class="st3" points="44.8,127 23.6,127 23,128 44.8,128 59.4,102.8 59.2,102.3 				"/>
				<path id="XMLID_100_" class="st0" d="M78.4,58L44.8,0H0l37,64L0,128h44.8l33.5-58C80.5,66.3,80.5,61.7,78.4,58z"/>
				<polygon id="XMLID_99_" class="st4" points="0.6,127 0,128 23,128 23.6,127 				"/>
				<path id="XMLID_98_" class="st0" d="M78.4,58L44.8,0H0l37,64L0,128h44.8l33.5-58C80.5,66.3,80.5,61.7,78.4,58z"/>
				<polygon id="XMLID_96_" class="st5" points="0,128 0.6,128 37.3,64.5 37,64 				"/>
				<path id="XMLID_94_" class="st0" d="M78.4,58L44.8,0H0l37,64L0,128h44.8l33.5-58C80.5,66.3,80.5,61.7,78.4,58z"/>
				
					<radialGradient id="XMLID_2_" cx="-537.2885" cy="2174.835" r="3.2547" gradientTransform="matrix(13.6 0 0 -13.6 7366.4014 29680.1445)" gradientUnits="userSpaceOnUse">
					<stop  offset="0" style="stop-color:#BF360C;stop-opacity:0.2"/>
					<stop  offset="1" style="stop-color:#BF360C;stop-opacity:2.000000e-02"/>
				</radialGradient>
				<polygon id="XMLID_92_" class="st6" points="59.4,102.8 48.5,83.9 45.8,88.5 				"/>
				<path id="XMLID_90_" class="st0" d="M78.4,58L44.8,0H0l37,64L0,128h44.8l33.5-58C80.5,66.3,80.5,61.7,78.4,58z"/>
				
					<radialGradient id="XMLID_3_" cx="-545.197" cy="2206.5583" r="2.6249" gradientTransform="matrix(17 0 0 -17 9327.5 37614.168)" gradientUnits="userSpaceOnUse">
					<stop  offset="0" style="stop-color:#263238;stop-opacity:0.2"/>
					<stop  offset="1" style="stop-color:#263238;stop-opacity:2.000000e-02"/>
				</radialGradient>
				<polygon id="XMLID_89_" class="st7" points="45.8,88.5 48.5,83.9 37,64 31.5,73.5 				"/>
				<path id="XMLID_88_" class="st0" d="M78.4,58L44.8,0H0l37,64L0,128h44.8l33.5-58C80.5,66.3,80.5,61.7,78.4,58z"/>
				<g id="XMLID_85_">
					<g id="XMLID_86_">
						<polygon id="XMLID_87_" class="st8" points="23,0 0,0 59.4,102.8 70.9,82.9 						"/>
					</g>
				</g>
				<path id="XMLID_84_" class="st0" d="M78.4,58L44.8,0H0l37,64L0,128h44.8l33.5-58C80.5,66.3,80.5,61.7,78.4,58z"/>
				<path id="XMLID_83_" class="st9" d="M78.4,70c2.1-3.7,2.1-8.3,0-12L44.8,0H23l47.9,82.9L78.4,70z"/>
				<path id="XMLID_82_" class="st0" d="M78.4,58L44.8,0H0l37,64L0,128h44.8l33.5-58C80.5,66.3,80.5,61.7,78.4,58z"/>
				<polygon id="XMLID_71_" class="st10" points="70.9,82.9 70.7,82.4 59.4,101.8 0.6,0 0,0 59.4,102.8 				"/>
				<path id="XMLID_69_" class="st0" d="M78.4,58L44.8,0H0l37,64L0,128h44.8l33.5-58C80.5,66.3,80.5,61.7,78.4,58z"/>
				<path id="XMLID_67_" class="st5" d="M44.8,1l33.5,58c1,1.7,1.5,3.6,1.6,5.5c0.1-2.2-0.4-4.5-1.6-6.5L44.8,0H0l0.6,1H44.8z"/>
				<path id="XMLID_66_" class="st0" d="M78.4,58L44.8,0H0l37,64L0,128h44.8l33.5-58C80.5,66.3,80.5,61.7,78.4,58z"/>
				<path id="XMLID_65_" class="st11" d="M70.9,82.9L78.4,70c1.2-2,1.7-4.3,1.6-6.5c-0.1,1.9-0.6,3.8-1.6,5.5l-7.7,13.4L70.9,82.9z"
					/>
				<path id="XMLID_64_" class="st0" d="M78.4,58L44.8,0H0l37,64L0,128h44.8l33.5-58C80.5,66.3,80.5,61.7,78.4,58z"/>
				
					<radialGradient id="XMLID_4_" cx="-573.7466" cy="2309.9343" r="1.6802" gradientTransform="matrix(79.9627 0 0 -79.9628 45877.3359 184709.7188)" gradientUnits="userSpaceOnUse">
					<stop  offset="0" style="stop-color:#FFFFFF;stop-opacity:0.1"/>
					<stop  offset="1" style="stop-color:#FFFFFF;stop-opacity:0"/>
				</radialGradient>
				<path id="XMLID_63_" class="st12" d="M78.4,58L44.8,0H0l37,64L0,128h44.8l33.5-58C80.5,66.3,80.5,61.7,78.4,58z"/>
			</g>
		</g>
	</g>
</g>
<text transform="matrix(1 0 0 1 111.0015 51.3998)"><tspan x="0" y="0" class="st13 st14 st15">GDG DevFest</tspan><tspan x="0" y="63.3" class="st13 st14 st15">Astrakhan 2018</tspan></text>
</svg>
