<svg width="213" height="40" viewBox="0 0 213 40" fill="none" xmlns="http://www.w3.org/2000/svg">
<path fill-rule="evenodd" clip-rule="evenodd" d="M31.7224 7.48944H36.903C37.2154 7.48944 37.5151 7.61203 37.736 7.83024C37.9569 8.04845 38.0811 8.34441 38.0811 8.65301V30.4244C35.4837 26.6393 33.0708 23.1626 30.5585 19.5317V8.65301C30.5585 8.34683 30.6807 8.05297 30.8985 7.83516C31.1164 7.61735 31.4124 7.49313 31.7224 7.48944Z" fill="#50D0B7"/>
<path fill-rule="evenodd" clip-rule="evenodd" d="M5.08125 5.77991C5.07746 5.67934 5.09401 5.57902 5.12994 5.48484C5.16587 5.39065 5.22046 5.30449 5.2905 5.23139C5.36055 5.15829 5.44465 5.09972 5.53788 5.05911C5.63112 5.01849 5.73162 4.99665 5.8335 4.99486C7.80639 4.99486 9.76508 4.99486 11.738 4.99486C11.8662 5.01134 11.9965 4.99827 12.1188 4.95667C12.241 4.91508 12.3519 4.84609 12.4426 4.7551C12.5334 4.66412 12.6015 4.55362 12.6418 4.43226C12.6821 4.3109 12.6934 4.18197 12.6747 4.05559V0.803206C12.6772 0.692765 12.656 0.583058 12.6126 0.481256C12.5692 0.379453 12.5045 0.287847 12.4228 0.212427C12.341 0.137006 12.2441 0.0794681 12.1384 0.0435744C12.0326 0.0076808 11.9203 -0.00576057 11.8089 0.00412898H1.10709C0.468383 0.00412898 0 0.158337 0 1.06957V38.9206C0 39.8318 0.468383 39.986 1.10709 39.986H11.8089C11.9203 39.9959 12.0326 39.9825 12.1384 39.9466C12.2441 39.9107 12.341 39.8531 12.4228 39.7777C12.5045 39.7023 12.5692 39.6107 12.6126 39.5089C12.656 39.4071 12.6772 39.2974 12.6747 39.1869V35.8785C12.6934 35.7521 12.6821 35.6232 12.6418 35.5018C12.6015 35.3805 12.5334 35.27 12.4426 35.179C12.3519 35.088 12.241 35.019 12.1188 34.9774C11.9965 34.9358 11.8662 34.9227 11.738 34.9392H5.8335C5.73162 34.9374 5.63112 34.9156 5.53788 34.875C5.44465 34.8344 5.36055 34.7758 5.2905 34.7027C5.22046 34.6296 5.16587 34.5434 5.12994 34.4492C5.09401 34.3551 5.07746 34.2547 5.08125 34.1542V5.77991Z" fill="#6084C4"/>
<path fill-rule="evenodd" clip-rule="evenodd" d="M43.1198 5.77904C43.1199 5.57559 43.0401 5.38005 42.8971 5.2336C42.7541 5.08715 42.5592 5.00124 42.3533 4.99398C40.3947 4.99398 38.4218 4.99398 36.4631 4.99398C35.8102 4.99398 35.5263 4.65753 35.5263 4.05471V0.802328C35.5218 0.692564 35.5411 0.583114 35.5829 0.48131C35.6247 0.379506 35.688 0.287699 35.7686 0.212036C35.8493 0.136374 35.9453 0.0786042 36.0504 0.0425963C36.1555 0.00658835 36.2672 -0.00682622 36.3779 0.00325105H47.0798C47.7185 0.00325105 48.1868 0.157459 48.1868 1.06869V38.9197C48.1868 39.8309 47.7185 39.9851 47.0798 39.9851H36.3779C36.2672 39.9952 36.1555 39.9818 36.0504 39.9458C35.9453 39.9098 35.8493 39.852 35.7686 39.7764C35.688 39.7007 35.6247 39.6089 35.5829 39.5071C35.5411 39.4053 35.5218 39.2958 35.5263 39.1861V35.8776C35.5077 35.7512 35.519 35.6223 35.5592 35.5009C35.5995 35.3796 35.6677 35.2691 35.7584 35.1781C35.8492 35.0871 35.96 35.0181 36.0822 34.9765C36.2045 34.9349 36.3348 34.9219 36.4631 34.9383H42.3533C42.5592 34.9311 42.7541 34.8452 42.8971 34.6987C43.0401 34.5523 43.1199 34.3567 43.1198 34.1533V5.77904Z" fill="#50D0B7"/>
<path fill-rule="evenodd" clip-rule="evenodd" d="M11.5676 7.48944H16.7199C16.8746 7.48944 17.0278 7.51954 17.1707 7.57801C17.3136 7.63649 17.4435 7.72219 17.5529 7.83024C17.6623 7.93829 17.749 8.06656 17.8082 8.20773C17.8674 8.3489 17.8979 8.50021 17.8979 8.65301V19.6298C17.0605 20.8074 13.9521 25.3215 10.3896 30.4664V8.65301C10.3896 8.50021 10.4201 8.3489 10.4793 8.20773C10.5385 8.06656 10.6252 7.93829 10.7346 7.83024C10.844 7.72219 10.9739 7.63649 11.1168 7.57801C11.2597 7.51954 11.4129 7.48944 11.5676 7.48944Z" fill="#6084C4"/>
<path fill-rule="evenodd" clip-rule="evenodd" d="M27.6347 15.424C27.4984 15.2707 27.3264 15.1524 27.1336 15.0791C26.9408 15.0059 26.7328 14.9799 26.5276 15.0035C26.732 14.9905 26.9367 15.0214 27.1278 15.094C27.3189 15.1666 27.4918 15.2792 27.6347 15.424ZM24.2709 22.4335C26.7973 26.2046 27.507 27.27 30.3315 31.4476C30.587 31.8261 30.9844 32.5271 31.7508 32.5271H36.903C37.1957 32.5165 37.4732 32.3959 37.6789 32.1901C37.8846 31.9843 38.0031 31.7087 38.0101 31.4196V30.4242C34.5469 25.4055 31.3818 20.7512 27.876 15.7605L27.6489 15.424C27.8589 15.7092 27.972 16.0527 27.972 16.4053C27.972 16.758 27.8589 17.1015 27.6489 17.3867L24.2709 22.4335Z" fill="#8AE1C1"/>
<path fill-rule="evenodd" clip-rule="evenodd" d="M22.0282 14.9895H26.5133C28.032 14.9895 28.2591 16.3914 27.6062 17.3727C21.9289 25.7841 21.9289 25.7841 18.2102 31.3916C17.9405 31.7701 17.5431 32.4711 16.7908 32.4711H11.5818C11.4266 32.4748 11.2722 32.4479 11.1277 32.3918C10.9832 32.3357 10.8515 32.2516 10.7404 32.1445C10.6293 32.0374 10.5411 31.9094 10.4808 31.768C10.4206 31.6267 10.3895 31.4749 10.3896 31.3215V30.5084C13.867 25.4897 17.1031 20.7653 20.6231 15.7746C20.7488 15.5182 20.9506 15.3058 21.2016 15.1655C21.4526 15.0253 21.741 14.9639 22.0282 14.9895Z" fill="#84C7E7"/>
<path fill-rule="evenodd" clip-rule="evenodd" d="M164.133 39.1581C164.972 39.7071 165.966 39.9772 166.972 39.9291C167.709 39.924 168.438 39.7714 169.115 39.4805C169.678 39.2466 170.167 38.8692 170.534 38.3871C170.903 37.9136 171.098 37.3303 171.088 36.7328C171.095 36.3911 171.031 36.0516 170.899 35.7355C170.767 35.4195 170.57 35.1338 170.321 34.8964C169.668 34.3262 168.875 33.9348 168.022 33.7608L166.517 33.3683C166.033 33.2759 165.574 33.0849 165.169 32.8075C165.029 32.7002 164.916 32.5618 164.839 32.4036C164.763 32.2453 164.725 32.0716 164.729 31.8963C164.733 31.6886 164.795 31.4859 164.907 31.3104C165.02 31.1349 165.179 30.9933 165.368 30.901C165.795 30.6438 166.286 30.508 166.787 30.5084C167.292 30.4687 167.797 30.5815 168.236 30.8318C168.674 31.0822 169.025 31.4583 169.243 31.9103L170.747 31.2234C170.446 30.5246 169.909 29.9502 169.228 29.5972C168.559 29.2584 167.824 29.0644 167.073 29.0282C166.321 28.9919 165.571 29.1142 164.871 29.3869C164.317 29.6019 163.828 29.9543 163.452 30.4103C163.099 30.8539 162.909 31.4024 162.912 31.9664C162.902 32.3174 162.967 32.6665 163.104 32.9904C163.241 33.3144 163.447 33.6057 163.707 33.8449C164.291 34.3494 164.994 34.7013 165.751 34.8683L167 35.1908C167.616 35.3027 168.204 35.5312 168.732 35.8637C168.904 35.9735 169.046 36.1252 169.143 36.3043C169.24 36.4834 169.289 36.684 169.285 36.887C169.286 37.1194 169.222 37.3475 169.099 37.5457C168.976 37.7438 168.8 37.9041 168.59 38.0086C168.078 38.287 167.499 38.4227 166.915 38.4011C166.318 38.404 165.734 38.2281 165.24 37.8964C164.73 37.5494 164.335 37.0618 164.104 36.4945L162.557 37.1814C162.866 37.9837 163.416 38.6734 164.133 39.1581ZM157.774 29.443H156.128V39.6768H157.874V33.9431C157.873 33.4076 157.999 32.8794 158.243 32.401C158.48 31.9472 158.826 31.5574 159.25 31.2655C159.668 30.9834 160.164 30.8365 160.67 30.8449C161.161 30.8469 161.646 30.957 162.089 31.1673V29.3449C161.703 29.1847 161.287 29.1082 160.868 29.1206C160.215 29.1223 159.577 29.3176 159.037 29.6813C158.498 30.0061 158.083 30.4994 157.859 31.0832H157.774V29.443ZM151.927 32.1907C152.129 32.5944 152.254 33.0317 152.296 33.4804H145.965C146.102 32.6983 146.49 31.9805 147.072 31.4337C147.346 31.1763 147.669 30.9755 148.023 30.8431C148.376 30.7107 148.753 30.6494 149.13 30.6627C149.749 30.6415 150.36 30.7972 150.89 31.1113C151.328 31.3724 151.686 31.7453 151.927 32.1907ZM146.642 39.2915C147.443 39.7702 148.365 40.0155 149.301 39.9992V39.9572C150.246 39.9889 151.18 39.7522 151.992 39.275C152.805 38.7979 153.462 38.1005 153.885 37.2656L152.466 36.5646C152.253 36.9633 151.962 37.3163 151.609 37.6031C151.257 37.8898 150.85 38.1046 150.413 38.235C149.976 38.3654 149.518 38.4088 149.063 38.3627C148.609 38.3166 148.169 38.182 147.768 37.9665C147.231 37.6922 146.784 37.2744 146.476 36.7609C146.12 36.1655 145.924 35.4897 145.909 34.7982H154.098C154.121 34.6261 154.121 34.4517 154.098 34.2795C154.116 33.3396 153.912 32.4084 153.502 31.5599C153.118 30.7951 152.523 30.1534 151.785 29.7094C150.985 29.2483 150.071 29.0154 149.145 29.0365C148.204 29.0136 147.279 29.2726 146.49 29.7795C145.734 30.2718 145.13 30.9607 144.745 31.7701C144.327 32.6169 144.113 33.5478 144.12 34.4898C144.1 35.4634 144.324 36.4267 144.773 37.2936C145.193 38.1202 145.841 38.8127 146.642 39.2915ZM136.456 25.2373H134.738V39.6067H136.456V36.4525L138.258 34.6861L141.58 39.6067H143.638V39.5366L139.479 33.5085L143.538 29.443H141.338L136.456 34.2655V25.2373ZM129.047 37.9805C128.554 38.2731 127.99 38.4282 127.414 38.4291C126.825 38.4596 126.242 38.2861 125.768 37.9385C125.556 37.7709 125.387 37.557 125.274 37.3137C125.161 37.0703 125.106 36.8043 125.115 36.5366C125.109 36.2481 125.171 35.9622 125.297 35.7018C125.423 35.4413 125.608 35.2135 125.839 35.0365C126.463 34.6007 127.22 34.3925 127.982 34.4478C128.49 34.4472 128.996 34.5132 129.487 34.644C129.915 34.7565 130.323 34.9364 130.693 35.1767C130.694 35.7495 130.537 36.3116 130.239 36.8029C129.947 37.2876 129.537 37.6924 129.047 37.9805ZM125.214 39.4946C125.852 39.7954 126.552 39.9443 127.258 39.9291C127.922 39.9416 128.578 39.7821 129.16 39.4665C129.738 39.1773 130.228 38.742 130.58 38.2048H130.693V39.6067H132.283V33.116C132.308 32.5642 132.214 32.0135 132.005 31.5009C131.797 30.9883 131.481 30.5256 131.076 30.144C130.145 29.3746 128.953 28.9837 127.741 29.0505C126.926 29.053 126.124 29.2451 125.399 29.6112C124.721 29.9239 124.139 30.4074 123.71 31.0131L125.016 31.9804C125.303 31.5382 125.705 31.1801 126.18 30.943C126.676 30.6928 127.227 30.5676 127.783 30.5785C128.528 30.5486 129.256 30.7935 129.827 31.2655C130.097 31.4894 130.312 31.7713 130.454 32.0896C130.597 32.4079 130.664 32.7541 130.651 33.1019V33.7188C130.264 33.5097 129.848 33.3585 129.416 33.2702C128.846 33.1252 128.259 33.0545 127.67 33.0599C126.556 33.0202 125.46 33.3401 124.547 33.9711C124.146 34.2642 123.823 34.6501 123.608 35.0949C123.393 35.5397 123.291 36.03 123.313 36.5226C123.3 37.1403 123.468 37.7485 123.795 38.2749C124.144 38.8045 124.635 39.227 125.214 39.4946ZM107.87 29.443H106.252V39.6067H107.955V33.873C107.949 33.3116 108.071 32.756 108.31 32.2468C108.531 31.7715 108.868 31.3574 109.289 31.0412C109.702 30.7466 110.199 30.5895 110.709 30.5926C111.03 30.5673 111.353 30.6119 111.654 30.7234C111.956 30.8348 112.229 31.0103 112.455 31.2374C112.894 31.8429 113.101 32.5837 113.036 33.3262V39.6067H114.711V33.8309C114.713 33.2748 114.834 32.7252 115.066 32.2188C115.289 31.7479 115.631 31.3421 116.06 31.0412C116.471 30.743 116.969 30.5855 117.479 30.5926C117.8 30.5692 118.122 30.6147 118.423 30.726C118.725 30.8374 118.998 31.0118 119.225 31.2374C119.656 31.8254 119.857 32.5472 119.793 33.2702V39.5787H121.496V33.0178C121.552 31.9681 121.236 30.9319 120.602 30.0879C120.263 29.7201 119.845 29.4331 119.377 29.2486C118.91 29.064 118.407 28.9867 117.905 29.0224C117.169 29.0086 116.443 29.1927 115.804 29.5552C115.221 29.8996 114.734 30.3812 114.385 30.957C114.13 30.3793 113.704 29.8909 113.164 29.5552C112.572 29.1932 111.887 29.0082 111.191 29.0224C110.521 29.0202 109.863 29.1996 109.289 29.5411C108.736 29.8518 108.276 30.3016 107.955 30.8449H107.87V29.443ZM96.5153 25.2373H94.7837V39.6067H96.5153V33.901C96.5107 33.3394 96.6472 32.7855 96.9127 32.2888C97.1633 31.796 97.528 31.3685 97.9773 31.0412C98.4185 30.7359 98.943 30.5697 99.4818 30.5645C100.16 30.5389 100.822 30.7753 101.327 31.2234C101.582 31.4975 101.777 31.821 101.899 32.1733C102.021 32.5256 102.068 32.8991 102.037 33.2702V39.5787H103.797V33.0178C103.847 31.9616 103.492 30.9255 102.803 30.1159C102.437 29.7438 101.993 29.4536 101.504 29.265C101.014 29.0764 100.489 28.9937 99.9643 29.0224C99.2531 29.0142 98.5526 29.1932 97.9347 29.5411C97.3451 29.8328 96.8525 30.2852 96.5153 30.8449H96.4302L96.5153 29.443V25.2373ZM85.6715 39.2562C86.4954 39.7223 87.4334 39.9551 88.3825 39.9291C89.3881 39.9635 90.3798 39.6892 91.2212 39.1441C91.9793 38.6446 92.5678 37.9315 92.9102 37.0973L91.3773 36.4525C91.1343 37.0291 90.7182 37.5184 90.1851 37.8543C89.636 38.2523 88.978 38.4771 88.2973 38.4992C87.694 38.4986 87.1032 38.3284 86.5941 38.0086C86.0541 37.6566 85.6144 37.174 85.3167 36.6067C84.9975 35.9761 84.8369 35.2788 84.8483 34.5739C84.8334 33.8687 84.9943 33.1706 85.3167 32.5412C85.6144 31.9739 86.0541 31.4912 86.5941 31.1393C87.1032 30.8194 87.694 30.6492 88.2973 30.6486C88.9476 30.6318 89.5887 30.8023 90.1425 31.1393C90.661 31.4804 91.062 31.9694 91.2921 32.5412L92.8534 31.8963C92.545 31.0554 91.9733 30.3336 91.2212 29.8355C90.377 29.2978 89.3863 29.0287 88.3825 29.0645C87.4315 29.0534 86.495 29.2955 85.6715 29.7654C84.878 30.2286 84.2333 30.9042 83.8122 31.7141C83.3603 32.5813 83.1245 33.5425 83.1245 34.5179C83.1245 35.4932 83.3603 36.4544 83.8122 37.3216C84.2422 38.1216 84.8851 38.7905 85.6715 39.2562ZM79.3697 32.1206C79.5852 32.5193 79.7111 32.9592 79.7387 33.4104H73.4794C73.6157 32.6282 74.004 31.9104 74.5865 31.3636C74.8603 31.1062 75.1833 30.9054 75.5367 30.773C75.8902 30.6406 76.2668 30.5793 76.6445 30.5926C77.2435 30.5821 77.8335 30.7375 78.3477 31.0412C78.7851 31.298 79.1396 31.6724 79.3697 32.1206ZM76.7203 39.9298C76.7281 39.9296 76.736 39.9294 76.7439 39.9291H76.7013C76.7076 39.9294 76.7139 39.9296 76.7203 39.9298ZM74.0897 39.2562C74.886 39.7187 75.7972 39.9519 76.7203 39.9298C77.6607 39.9587 78.5901 39.7225 79.3998 39.2486C80.2149 38.7715 80.8743 38.0736 81.3 37.2375L79.8806 36.5366C79.5989 37.0997 79.1614 37.5724 78.6188 37.9C78.0762 38.2275 77.4507 38.3964 76.8148 38.3871C76.2401 38.3909 75.6737 38.2511 75.1684 37.9805C74.6346 37.7026 74.1879 37.2856 73.8768 36.7749C73.5254 36.1782 73.3349 35.5024 73.3232 34.8122H81.598C81.6213 34.6401 81.6213 34.4657 81.598 34.2935C81.6157 33.3536 81.4116 32.4224 81.0019 31.5739C80.6181 30.8091 80.0226 30.1674 79.2845 29.7234C78.4844 29.2624 77.5706 29.0294 76.6445 29.0505C75.7011 29.0359 74.7755 29.3048 73.9903 29.8215C73.2307 30.31 72.6256 30.9999 72.2445 31.8122C71.8247 32.6713 71.6066 33.613 71.6066 34.5669C71.6066 35.5209 71.8247 36.4625 72.2445 37.3216C72.6608 38.1267 73.3009 38.7978 74.0897 39.2562ZM62.0537 26.8635H66.1414V39.6067H67.873V26.8635H71.9891V25.2373H62.0537V26.8635ZM123.71 4.20899H122.064V14.4708H123.682V8.70906C123.684 8.16047 123.81 7.61927 124.051 7.12492C124.286 6.64654 124.637 6.23257 125.073 5.91929C125.582 5.58429 126.188 5.42103 126.799 5.45388C127.411 5.48672 127.995 5.71391 128.465 6.10154C128.721 6.37749 128.915 6.70364 129.035 7.05872C129.155 7.4138 129.197 7.78984 129.16 8.16232V14.4708H130.949V7.90998C131.01 6.84605 130.66 5.79886 129.969 4.98003C129.601 4.61147 129.157 4.32553 128.668 4.14167C128.178 3.95782 127.653 3.88037 127.131 3.91459C126.429 3.90994 125.738 4.0889 125.129 4.43329C124.544 4.73116 124.053 5.18218 123.71 5.73705V4.20899ZM117.806 7.01277C117.999 7.40314 118.115 7.82678 118.146 8.26045H111.787C111.935 7.4832 112.328 6.77184 112.909 6.22771C113.183 5.97033 113.506 5.76955 113.859 5.63715C114.212 5.50475 114.589 5.44339 114.967 5.45667C115.606 5.4286 116.238 5.5897 116.784 5.91929C117.222 6.18109 117.576 6.56023 117.806 7.01277ZM112.497 14.0923C113.3 14.5623 114.218 14.8048 115.151 14.7933C116.135 14.8125 117.103 14.5442 117.933 14.0222C118.684 13.5455 119.295 12.8835 119.707 12.1016L118.288 11.4007C118.006 11.9638 117.569 12.4366 117.026 12.7641C116.484 13.0916 115.858 13.2605 115.222 13.2512C114.648 13.2481 114.084 13.1086 113.576 12.8446C113.045 12.5622 112.6 12.1463 112.284 11.639C111.932 11.0366 111.737 10.3575 111.717 9.66234H119.935C119.967 9.49095 119.967 9.31504 119.935 9.14364C119.952 8.20819 119.748 7.28164 119.338 6.43799C118.949 5.67221 118.349 5.03069 117.607 4.5875C116.808 4.123 115.893 3.88981 114.967 3.91459C114.068 3.90481 113.185 4.15319 112.426 4.62956C111.67 5.11942 111.061 5.80248 110.666 6.60622C110.251 7.45855 110.042 8.39431 110.056 9.33991C110.031 10.3139 110.256 11.2782 110.709 12.1437C111.113 12.9427 111.732 13.6167 112.497 14.0923ZM94.4005 4.20899H92.7541V14.4708H94.4715V8.72307C94.4659 8.16621 94.5872 7.61523 94.8263 7.1109C95.0382 6.63004 95.3763 6.21382 95.8057 5.90528C96.2186 5.61069 96.7157 5.45357 97.225 5.45667C97.5436 5.43443 97.8634 5.48054 98.1623 5.59186C98.4612 5.70317 98.7322 5.87704 98.9566 6.10154C99.4048 6.7031 99.612 7.44703 99.5385 8.19036V14.4708H101.242V8.69504C101.234 8.13797 101.356 7.58657 101.597 7.08286C101.819 6.6079 102.161 6.19748 102.59 5.89126C103.002 5.59618 103.501 5.44344 104.009 5.45667C104.333 5.43218 104.657 5.47714 104.961 5.58847C105.265 5.69979 105.541 5.87483 105.769 6.10154C106.21 6.69622 106.416 7.42846 106.351 8.16232V14.4708H108.026V7.90998C108.081 6.85829 107.759 5.8211 107.118 4.98003C106.779 4.61228 106.361 4.32528 105.894 4.14071C105.426 3.95614 104.923 3.87882 104.421 3.91459C103.684 3.89183 102.955 4.07659 102.32 4.44731C101.741 4.79621 101.254 5.27686 100.901 5.8492C100.658 5.26813 100.236 4.77754 99.6947 4.44731C99.1005 4.07888 98.4088 3.89344 97.7076 3.91459C97.0422 3.91421 96.3894 4.09358 95.8199 4.43329C95.2634 4.74004 94.8022 5.19078 94.4857 5.73705H94.4005V4.20899ZM87.4327 12.7298C86.8961 13.0478 86.2831 13.2181 85.6573 13.2231L85.6148 13.2512C84.9943 13.2753 84.3781 13.14 83.8264 12.8586C83.2617 12.5189 82.8006 12.0345 82.4922 11.4568C82.1513 10.823 81.9803 10.1135 81.9954 9.39598C81.9779 8.67372 82.1489 7.95916 82.4922 7.32118C82.8006 6.74348 83.2617 6.25905 83.8264 5.91929C84.3712 5.61296 84.9879 5.45342 85.6148 5.45667C86.2505 5.44927 86.8759 5.61556 87.4219 5.93717C87.9679 6.25878 88.4133 6.7232 88.7089 7.27913C89.0621 7.9139 89.2384 8.62986 89.2199 9.35393C89.2366 10.0733 89.0603 10.7843 88.7089 11.4147C88.41 11.9577 87.9694 12.4118 87.4327 12.7298ZM82.8754 14.0222C83.7123 14.5262 84.6774 14.784 85.6573 14.7652L85.6148 14.7933C86.5834 14.7979 87.5334 14.5305 88.3541 14.0222C89.1606 13.5555 89.8192 12.8758 90.256 12.0596C90.723 11.1982 90.9576 10.2327 90.9373 9.25579C90.9551 8.27921 90.7206 7.31425 90.256 6.45201C89.8192 5.6358 89.1606 4.95611 88.3541 4.48937C87.5189 4.02118 86.5751 3.77506 85.6148 3.77506C84.6545 3.77506 83.7106 4.02118 82.8754 4.48937C82.069 4.95611 81.4103 5.6358 80.9735 6.45201C80.5089 7.31425 80.2744 8.27921 80.2922 9.25579C80.2719 10.2327 80.5065 11.1982 80.9735 12.0596C81.4103 12.8758 82.069 13.5555 82.8754 14.0222ZM63.7853 0.0874329H61.8691L65.8149 14.4708H67.6033L70.811 4.0688L71.1658 2.94729H71.251L71.5633 4.0688L74.6574 14.4708H76.4458L80.349 0.0874329H78.4471L75.6084 11.639H75.5232L75.2252 10.6577L72.1026 0.0874329H70.3L67.0072 10.6577L66.7091 11.639H66.6665L66.4252 10.6577L63.7853 0.0874329ZM179.208 34.0272V39.7122H177.609V26.0419H181.379C183.065 26.0419 184.309 26.363 185.111 27.005C185.919 27.6471 186.323 28.6133 186.323 29.9036C186.323 31.7114 185.402 32.9332 183.56 33.569L187.292 39.7122H185.402L182.075 34.0272H179.208ZM179.208 32.662H181.398C182.526 32.662 183.353 32.4407 183.879 31.9981C184.406 31.5493 184.669 30.8792 184.669 29.9878C184.669 29.0839 184.4 28.4325 183.861 28.0336C183.328 27.6346 182.469 27.4351 181.285 27.4351H179.208V32.662ZM196.325 39.7122V33.0828C196.325 32.2475 196.134 31.6241 195.752 31.2127C195.369 30.8013 194.771 30.5956 193.956 30.5956C192.878 30.5956 192.089 30.8854 191.587 31.4652C191.086 32.0449 190.835 33.0017 190.835 34.3357V39.7122H189.275V29.4642H190.544L190.798 30.8667H190.873C191.193 30.3618 191.641 29.9722 192.217 29.6979C192.794 29.4174 193.436 29.2772 194.144 29.2772C195.385 29.2772 196.319 29.5764 196.946 30.1748C197.572 30.767 197.886 31.7176 197.886 33.0267V39.7122H196.325ZM210.453 37.9263C211.688 36.7294 212.305 35.0027 212.305 32.7462C212.305 30.633 211.713 28.9873 210.529 27.8092C209.344 26.631 207.684 26.0419 205.547 26.0419H201.335V39.7122H205.142C207.455 39.7122 209.225 39.1169 210.453 37.9263ZM209.26 28.7723C210.162 29.6761 210.613 31.0195 210.613 32.8023C210.613 34.6287 210.134 36.0094 209.175 36.9445C208.216 37.8733 206.784 38.3377 204.879 38.3377H202.933V27.4164H205.255C207.029 27.4164 208.364 27.8684 209.26 28.7723Z" fill="black"/>
</svg>
